<svg width="25" height="22" viewBox="0 0 25 22" fill="none" xmlns="http://www.w3.org/2000/svg">
<path d="M19.3435 6H18.526L16.8313 1.32C16.691 0.934104 16.4361 0.600651 16.101 0.364616C15.7659 0.128582 15.3667 0.00132163 14.9572 0H13.3622C12.8139 0 12.3653 0.45 12.3653 1C12.3653 1.55 12.8139 2 13.3622 2H14.9572L16.4126 6H11.6177L11.2588 5H11.3485C11.8968 5 12.3454 4.55 12.3454 4C12.3454 3.45 11.8968 3 11.3485 3H8.37783C7.82955 3 7.38096 3.45 7.38096 4C7.38096 4.55 7.82955 5 8.37783 5H9.12549L10.9398 10H10.2719C9.83327 7.77 7.96911 6.12 5.63643 6.01C2.84518 5.87 0.402832 8.2 0.402832 11C0.402832 13.8 2.59596 16 5.38721 16C7.83952 16 9.8233 14.31 10.2719 12H14.4588C14.8974 14.23 16.7616 15.88 19.0942 15.99C21.8855 16.12 24.3278 13.8 24.3278 10.99C24.3278 8.2 22.1347 6 19.3435 6ZM6.38408 12H8.19839C7.77971 13.23 6.60339 14.08 5.18783 13.99C3.70249 13.9 2.46636 12.64 2.39658 11.14C2.3268 9.39 3.66261 8 5.38721 8C6.71305 8 7.79964 8.83 8.19839 10H6.38408C5.8358 10 5.38721 10.45 5.38721 11C5.38721 11.55 5.8358 12 6.38408 12ZM14.4588 10H13.0631L12.3354 8H15.356C14.9173 8.58 14.5983 9.25 14.4588 10ZM19.2238 14C17.6886 13.94 16.3927 12.63 16.3528 11.08C16.3329 10.12 16.7416 9.28 17.3995 8.72L18.0176 10.42C18.207 10.94 18.7752 11.21 19.2936 11.02C19.812 10.83 20.0811 10.26 19.8917 9.74L19.2637 8.01L19.2737 8C19.6734 7.98633 20.0717 8.05405 20.4445 8.19908C20.8174 8.3441 21.1571 8.56343 21.4431 8.84381C21.7291 9.12418 21.9555 9.4598 22.1087 9.83039C22.2618 10.201 22.3385 10.5989 22.3341 11C22.3341 12.72 20.9584 14.06 19.2238 14ZM11.3685 19H7.38096L13.3622 22V20H17.3497L11.3685 17V19Z" fill="url(#paint0_linear_53_337)"/>
<defs>
<linearGradient id="paint0_linear_53_337" x1="12.3653" y1="0" x2="12.3653" y2="22" gradientUnits="userSpaceOnUse">
<stop stop-color="#FFBB00"/>
<stop offset="1" stop-color="#D07A14"/>
</linearGradient>
</defs>
</svg>
